<svg width="19" height="18" viewBox="0 0 19 18" fill="none" xmlns="http://www.w3.org/2000/svg">
<path d="M17.7584 0.350306C17.573 0.177692 17.3486 0.0634985 17.1088 0.0198648C16.8691 -0.023769 16.6231 0.00478704 16.397 0.102497L0.979166 6.7566C0.708739 6.86982 0.479677 7.07759 0.327252 7.34792C0.174827 7.61821 0.10749 7.93613 0.13561 8.25264C0.160698 8.56899 0.278443 8.86794 0.471188 9.10456C0.663934 9.34119 0.921295 9.50281 1.20467 9.56506L5.12177 10.4186V15.797C5.12164 16.088 5.20015 16.3724 5.34736 16.6142C5.49458 16.8561 5.70385 17.0444 5.94863 17.1554C6.11062 17.227 6.28348 17.2643 6.4581 17.2655C6.63361 17.2661 6.80749 17.2283 6.96955 17.1543C7.1316 17.0802 7.27857 16.9714 7.40188 16.8341L9.57339 14.457L12.8557 17.6326C13.0981 17.8675 13.4097 17.9979 13.7327 17.9997C13.8748 18.0029 14.0163 17.9781 14.1504 17.9263C14.3707 17.8497 14.5691 17.7111 14.7258 17.5244C14.8826 17.3377 14.9923 17.1092 15.044 16.8617L18.1843 1.79126C18.2393 1.53122 18.2286 1.25965 18.1536 1.00576C18.0785 0.751868 17.9418 0.525261 17.7584 0.350306ZM5.63125 9.03279L1.47193 8.12416L13.1314 3.08537L5.63125 9.03279ZM6.4581 15.797V11.4466L8.56279 13.4841L6.4581 15.797ZM13.7411 16.5312L6.859 9.87714L16.7729 2.01154L13.7411 16.5312Z" fill="#FFBA00"/>
</svg>
