<svg width="19" height="18" viewBox="0 0 19 18" fill="none" xmlns="http://www.w3.org/2000/svg">
<path fill-rule="evenodd" clip-rule="evenodd" d="M13.1894 10.7865C12.9637 10.6748 11.8572 10.1363 11.6512 10.0613C11.4452 9.98701 11.2952 9.95026 11.1445 10.1738C10.9946 10.3958 10.5636 10.8983 10.4326 11.0468C10.3008 11.196 10.1698 11.214 9.94488 11.103C9.71994 10.9905 8.99439 10.7558 8.13479 9.99676C7.46604 9.40576 7.0139 8.67601 6.88288 8.45252C6.75185 8.22977 6.86849 8.10902 6.98133 7.99802C7.08282 7.89827 7.20627 7.73777 7.31911 7.60802C7.43196 7.47752 7.46907 7.38452 7.54405 7.23527C7.61979 7.08677 7.58192 6.95702 7.52512 6.84527C7.46907 6.73352 7.0192 5.63627 6.83138 5.19002C6.64885 4.75577 6.4633 4.81502 6.32546 4.80752C6.19368 4.80152 6.04372 4.80002 5.89376 4.80002C5.74381 4.80002 5.49994 4.85552 5.29394 5.07902C5.08718 5.30177 4.50628 5.84102 4.50628 6.93827C4.50628 8.03477 5.31211 9.09451 5.42496 9.24376C5.53781 9.39226 7.01163 11.6438 9.26931 12.609C9.80704 12.8385 10.2259 12.9758 10.5523 13.0778C11.0915 13.248 11.5823 13.224 11.9701 13.1663C12.4017 13.1025 13.3015 12.627 13.4893 12.1065C13.6764 11.586 13.6764 11.1398 13.6203 11.0468C13.5643 10.9538 13.4143 10.8983 13.1886 10.7865H13.1894ZM9.083 16.3388H9.07997C7.73899 16.339 6.42268 15.9821 5.26894 15.3053L4.99629 15.1448L2.16226 15.8813L2.91886 13.1453L2.74088 12.8648C1.9912 11.6831 1.59446 10.3154 1.59651 8.91976C1.59803 4.83227 4.95615 1.50678 9.08603 1.50678C11.0855 1.50678 12.9652 2.27927 14.3785 3.68027C15.0755 4.36771 15.628 5.1852 16.004 6.08544C16.3799 6.98569 16.5718 7.95084 16.5687 8.92501C16.5672 13.0125 13.2091 16.3388 9.083 16.3388ZM15.4539 2.61602C14.6194 1.78422 13.6265 1.12468 12.5328 0.67563C11.4391 0.226579 10.2662 -0.00305718 9.08224 3.0733e-05C4.11852 3.0733e-05 0.0772506 4.00127 0.0757359 8.91901C0.0734358 10.4841 0.488022 12.0221 1.27766 13.3778L0 18L4.77439 16.7595C6.09512 17.4721 7.57518 17.8455 9.07922 17.8455H9.083C14.0467 17.8455 18.088 13.8443 18.0895 8.92576C18.0931 7.75374 17.8622 6.59259 17.4097 5.50955C16.9573 4.4265 16.2926 3.44303 15.4539 2.61602Z" fill="#FFBA00"/>
</svg>
